<svg id="Camada_1" data-name="Camada 1" xmlns="http://www.w3.org/2000/svg" viewBox="0 0 50 50"><defs><style>.cls-1{fill:#2c2e44;}.cls-2{fill:#fff;}</style></defs><rect class="cls-1" width="50" height="50"/><path class="cls-2" d="M40.44,36.08a7.21,7.21,0,0,1,5.35-2.29c4.17,0,6.94,3.05,7.47,7.62.17,1.48.17,3.57.17,6v9.83H47.69V43.7c-.15-4.67-2.92-7.61-7.2-7.61a8,8,0,0,0-2.08,5.57V57.23H32.62V43.67a8.23,8.23,0,0,1,.83-3.47,7.62,7.62,0,0,1,6.7-4.13Z" transform="translate(-27.59 -20.41)"/><path class="cls-2" d="M72.57,52.74v4H63.15a5.94,5.94,0,0,1-2.42-.58,5.27,5.27,0,0,1-2.86-4.66.61.61,0,0,1,0-.19,5.53,5.53,0,0,0,3.88,1.43H72.57Z" transform="translate(-27.59 -20.41)"/><path class="cls-2" d="M57.88,51.3c-1-1-1.59-3.71-1.59-3.71v-14H60.5V47.74C59.19,48.57,57.88,49.81,57.88,51.3Z" transform="translate(-27.59 -20.41)"/></svg>